<svg width="32" height="32" viewBox="0 0 32 32" fill="none" xmlns="http://www.w3.org/2000/svg">
<rect width="32" height="32" rx="10" fill="#D9D9D9"/>
<path d="M17.77 7.043C16.5908 6.98153 15.4092 6.98153 14.23 7.043" stroke="black" stroke-width="2" stroke-linecap="round" stroke-linejoin="round"/>
<path d="M17.771 24.956C16.5915 25.0197 15.4095 25.02 14.23 24.957" stroke="black" stroke-width="2" stroke-linecap="round" stroke-linejoin="round"/>
<path d="M24.18 21.74C23.67 22.89 22.89 23.67 21.741 24.18" stroke="black" stroke-width="2" stroke-linecap="round" stroke-linejoin="round"/>
<path d="M24.18 10.259C23.67 9.111 22.889 8.33 21.74 7.821" stroke="black" stroke-width="2" stroke-linecap="round" stroke-linejoin="round"/>
<path d="M24.957 14.23C25.0203 15.4091 25.0203 16.5908 24.957 17.77" stroke="black" stroke-width="2" stroke-linecap="round" stroke-linejoin="round"/>
<path d="M7.04301 14.23C6.98183 15.4095 6.98217 16.5915 7.04401 17.771" stroke="black" stroke-width="2" stroke-linecap="round" stroke-linejoin="round"/>
<path d="M10.26 24.179C9.11001 23.671 8.33001 22.889 7.82001 21.741" stroke="black" stroke-width="2" stroke-linecap="round" stroke-linejoin="round"/>
<path d="M10.26 7.82C9.11101 8.33 8.33001 9.111 7.82001 10.26" stroke="black" stroke-width="2" stroke-linecap="round" stroke-linejoin="round"/>
</svg>
